<?xml version="1.0" encoding="iso-8859-1"?>
<!-- Generator: Adobe Illustrator 19.0.0, SVG Export Plug-In . SVG Version: 6.00 Build 0)  -->
<svg version="1.1" id="Capa_1" xmlns="http://www.w3.org/2000/svg" xmlns:xlink="http://www.w3.org/1999/xlink" x="0px" y="0px"
	 viewBox="0 0 512 512" style="enable-background:new 0 0 512 512;" xml:space="preserve">
<g>
	<g>
		<path d="M512,260.333v-41.59l-67.451-84.41H298.794L271,101.207V83.333h86.63V0H241v101.208l-27.794,33.125H67.452L0,218.743
			v41.59h27.667V482H0v30h512v-30h-27.666V260.333H512z M271,30h56.63v23.333H271V30z M30,229.257l51.882-64.924h106.153l-55.377,66
			H30V229.257z M241,482h-34V377.667h34V482z M305,482h-34V377.667h34V482z M454.334,482H335V347.667H177V482H57.667V260.333h88.981
			L256,130.003l109.353,130.33h88.981V482z M482,230.333H379.343l-55.377-66h106.153L482,229.257V230.333z"/>
	</g>
</g>
<g>
	<g>
		<rect x="101.67" y="309.33" width="30" height="42.667"/>
	</g>
</g>
<g>
	<g>
		<rect x="102.33" y="394.67" width="30" height="42.666"/>
	</g>
</g>
<g>
	<g>
		<rect x="380.33" y="309.33" width="30" height="42.667"/>
	</g>
</g>
<g>
	<g>
		<rect x="379.67" y="394.67" width="30" height="42.666"/>
	</g>
</g>
<g>
	<g>
		<path d="M256,209c-25.916,0-47,21.084-47,47s21.084,47,47,47s47-21.084,47-47C303,230.084,281.916,209,256,209z M256,273
			c-9.374,0-17-7.626-17-17c0-9.374,7.626-17,17-17c9.374,0,17,7.626,17,17C273,265.374,265.374,273,256,273z"/>
	</g>
</g>
<g>
</g>
<g>
</g>
<g>
</g>
<g>
</g>
<g>
</g>
<g>
</g>
<g>
</g>
<g>
</g>
<g>
</g>
<g>
</g>
<g>
</g>
<g>
</g>
<g>
</g>
<g>
</g>
<g>
</g>
</svg>
